<svg xmlns="http://www.w3.org/2000/svg" id="upload" xmlns:xlink="http://www.w3.org/1999/xlink" version="1.1" x="0px" y="0px" viewBox="0 0 100 100" enable-background="new 0 0 100 100" xml:space="preserve"><g><g><polygon points="57.393,92.93 55.917,92.93 55.917,81.213 62.168,81.213 50,64.252 37.831,81.213 44.086,81.213 44.086,92.93     42.61,92.93 42.61,82.688 34.956,82.688 50,61.722 65.042,82.688 57.393,82.688   "/><polygon points="28.748,85.987 27.272,85.987 27.272,79.364 30.3,79.364 24.439,71.195 18.583,79.364 21.61,79.364 21.61,85.987     20.135,85.987 20.135,80.84 15.71,80.84 24.439,68.664 33.174,80.84 28.748,80.84   "/><polygon points="79.864,85.987 78.389,85.987 78.389,79.364 81.416,79.364 75.557,71.195 69.701,79.364 72.725,79.364     72.725,85.987 71.25,85.987 71.25,80.84 66.827,80.84 75.557,68.664 84.29,80.84 79.864,80.84   "/><path d="M78.688,57.295H16.56C10.186,57.295,5,52.107,5,45.73c0-6.382,5.186-11.573,11.56-11.573c0.388,0,0.79,0.024,1.212,0.072    c1.176-7.969,7.98-13.887,16.133-13.887c1.552,0,3.104,0.229,4.625,0.684C41.328,12.771,49.221,7.07,57.983,7.07    c10.277,0,18.895,7.524,20.324,17.616c0.13-0.006,0.254-0.009,0.38-0.009C87.683,24.678,95,31.993,95,40.986    C95,49.979,87.683,57.295,78.688,57.295z M16.56,35.633c-5.561,0-10.084,4.53-10.084,10.098c0,5.563,4.523,10.089,10.084,10.089    h62.129c8.18,0,14.837-6.654,14.837-14.834c0-8.179-6.657-14.834-14.837-14.834c-0.302,0-0.594,0.023-0.884,0.045l-0.713,0.053    l-0.161-0.703c-1.044-9.691-9.188-17-18.946-17c-8.368,0-15.881,5.601-18.269,13.62l-0.221,0.74l-0.729-0.253    c-1.594-0.554-3.229-0.835-4.861-0.835c-7.648,0-13.995,5.727-14.76,13.321l-0.079,0.785l-0.778-0.132    C17.656,35.686,17.091,35.633,16.56,35.633z M71.286,49.076v-1.476c3.759,0,6.816-3.056,6.816-6.813    c0-3.759-3.056-6.818-6.816-6.818c-0.096,0-0.189,0.007-0.288,0.014l-0.87,0.048l-0.075-0.695    c-0.484-4.509-4.273-7.909-8.813-7.909c-3.896,0-7.394,2.604-8.502,6.335l-0.22,0.739l-0.73-0.252    c-0.73-0.256-1.481-0.384-2.232-0.384c-3.514,0-6.432,2.635-6.789,6.128l-0.081,0.793l-0.784-0.144    c-0.271-0.049-0.522-0.072-0.766-0.072c-2.486,0-4.51,2.028-4.51,4.52H35.15c0-3.396,2.833-6.161,6.257-5.988    c0.747-3.876,4.127-6.713,8.148-6.713c0.672,0,1.343,0.084,2.003,0.25c1.504-3.973,5.385-6.688,9.68-6.688    c5.063,0,9.323,3.627,10.185,8.543c4.51,0.074,8.155,3.767,8.155,8.293C79.578,45.357,75.858,49.076,71.286,49.076z"/></g></g></svg>