<svg xmlns="http://www.w3.org/2000/svg" xmlns:cc="http://creativecommons.org/ns#" xmlns:dc="http://purl.org/dc/elements/1.1/" xmlns:rdf="http://www.w3.org/1999/02/22-rdf-syntax-ns#" version="1.1" viewBox="0 0 26.458 33.0725" x="0px" y="0px"><g transform="translate(0 -270.54)"><path d="m13.196 276.42a0.25565 0.25565 0 0 0-9.98e-4 3.3e-4 0.25565 0.25565 0 0 0-0.24896 0.26161l0.01398 1.9801a0.25565 0.25565 0 0 0 0.0013 0.0356c-0.02723-2.7e-4 -0.05477-2e-3 -0.08188-2e-3 -1.1859 0-2.5071 0.21272-3.825 0.61809l-0.67866-1.827a0.25565 0.25565 0 0 0-0.25928-0.16975 0.25565 0.25565 0 0 0-0.22001 0.34715l0.672 1.8087c-1.2481 0.42961-2.4781 1.0299-3.5717 1.7877l-1.2392-1.4542a0.25565 0.25565 0 0 0-0.20104-0.0929 0.25565 0.25565 0 0 0-0.18772 0.4237l1.2132 1.4246c-1.0724 0.80974-1.9894 1.7776-2.6258 2.888a0.25565 0.25565 0 0 0-0.01132 8e-3l-1.56-0.88536a0.25565 0.25565 0 0 0-0.12049-0.0353 0.25565 0.25565 0 0 0-0.13214 0.47929l1.5853 0.901a0.25565 0.25565 0 0 0 0.02729 0.1095c0.04268 0.0849 0.08728 0.16533 0.12947 0.24264a0.25565 0.25565 0 0 0 0.08421 0.0919 0.25565 0.25565 0 0 0 0.0013 1e-3c2.0872 3.6376 7.1761 5.7528 10.919 5.7528 0.11882 0 0.23894-5e-3 0.35847-9e-3 0.12596 5e-3 0.25246 9e-3 0.37744 9e-3 3.7439 0 8.8338-2.1156 10.92-5.7541a0.25565 0.25565 0 0 0 0.08554-0.0919c0.01303-0.0239 0.0264-0.0504 0.03961-0.0749l1.6675-0.97921a0.25565 0.25565 0 0 0-0.11949-0.47829 0.25565 0.25565 0 0 0-0.13846 0.0379l-1.4152 0.82944c-0.01136-0.021-0.02273-0.044-0.03395-0.0646a0.25565 0.25565 0 0 0-0.08321-0.0892c-0.62336-1.0881-1.5165-2.039-2.5609-2.8388l1.1796-1.4272a0.25565 0.25565 0 0 0-0.20004-0.42137 0.25565 0.25565 0 0 0-0.19371 0.0955l-1.1986 1.4498c-1.1271-0.79193-2.4022-1.4165-3.6959-1.8562l0.64005-1.7963a0.25565 0.25565 0 0 0-0.25928-0.34482 0.25565 0.25565 0 0 0-0.22267 0.17374l-0.64471 1.81c-1.2986-0.3939-2.5983-0.59978-3.7667-0.59978-0.04792 0-0.09745 2e-3 -0.14612 3e-3a0.25565 0.25565 0 0 0 0.0013-0.0409l-0.01398-1.9801a0.25565 0.25565 0 0 0-0.26061-0.25795zm-0.31653 2.7865c0.11605 0 0.2361 3e-3 0.35847 8e-3a0.25565 0.25565 0 0 0 0.01997 0c0.12078-5e-3 0.2406-8e-3 0.35747-8e-3 3.5806 0 8.6378 2.1304 10.548 5.5804a0.25565 0.25565 0 0 0 0.03262 0.0453c0.01371 0.0251 0.02714 0.0488 0.04027 0.0732-0.01232 0.0229-0.02344 0.0457-0.03628 0.0692a0.25565 0.25565 0 0 0-0.03661 0.0503c-1.9102 3.4499-6.9674 5.5791-10.548 5.5791-0.11605 0-0.2361-3e-3 -0.35847-8e-3a0.25565 0.25565 0 0 0-0.01897 0c-0.12254 5e-3 -0.2425 8e-3 -0.35847 8e-3 -3.5806 0-8.6381-2.1291-10.548-5.5791a0.25565 0.25565 0 0 0-0.03395-0.0479c-0.01328-0.0244-0.02487-0.0478-0.03761-0.0716 0.01302-0.0242 0.02537-0.0484 0.03894-0.0732a0.25565 0.25565 0 0 0 0.03262-0.0453c1.9102-3.4499 6.9677-5.5804 10.548-5.5804zm0.36845 1.384c-2.3805 0-4.3163 1.9345-4.3163 4.3149 0 2.3805 1.9358 4.3159 4.3163 4.3159 2.3805 0 4.3149-1.9354 4.3149-4.3159 0-2.3805-1.9345-4.3149-4.3149-4.3149zm0 0.51057c2.1042 0 3.804 1.7002 3.804 3.8044s-1.6998 3.8054-3.804 3.8054c-2.1042 0-3.8054-1.7012-3.8054-3.8054s1.7012-3.8044 3.8054-3.8044zm-1.9198 1.1699a0.25565 0.25565 0 0 0-0.19737 0.0845c-1.4635 1.5793-1.3626 3.6218 0 5.0795a0.25565 0.25565 0 1 0 0.37378-0.34848c-1.2154-1.3001-1.3113-2.9664 9.99e-4 -4.3825a0.25565 0.25565 0 0 0-0.17707-0.43303z" color="#000000" color-rendering="auto" dominant-baseline="auto" image-rendering="auto" shape-rendering="auto" solid-color="#000000" style="font-feature-settings:normal;font-variant-alternates:normal;font-variant-caps:normal;font-variant-ligatures:normal;font-variant-numeric:normal;font-variant-position:normal;isolation:auto;mix-blend-mode:normal;paint-order:stroke fill markers;shape-padding:0;text-decoration-color:#000000;text-decoration-line:none;text-decoration-style:solid;text-indent:0;text-orientation:mixed;text-transform:none;white-space:normal;"/></g><text x="0" y="41.458" fill="#000000" font-size="5px" font-weight="bold" font-family="'Helvetica Neue', Helvetica, Arial-Unicode, Arial, Sans-serif">Created by mambu</text><text x="0" y="46.458" fill="#000000" font-size="5px" font-weight="bold" font-family="'Helvetica Neue', Helvetica, Arial-Unicode, Arial, Sans-serif">from the Noun Project</text></svg>