<svg xmlns="http://www.w3.org/2000/svg" data-name="Layer 1" viewBox="0 0 95 118.75" x="0px" y="0px"><path d="M86.783,7.887h-65.4a7.225,7.225,0,0,0-7.217,7.218v6.946L6.792,23.536a7.225,7.225,0,0,0-5.649,8.5L11.074,81.32a7.246,7.246,0,0,0,7.071,5.793,7.241,7.241,0,0,0,1.43-.144L83.69,74.05A7.186,7.186,0,0,0,86.783,72.6,7.226,7.226,0,0,0,94,65.378V15.105A7.226,7.226,0,0,0,86.783,7.887Zm-65.4,2.18H86.783a5.043,5.043,0,0,1,5.037,5.038V36.874L60.665,53.409,39.747,38.514a1.09,1.09,0,0,0-1.176-.056L16.34,51.263V15.105A5.044,5.044,0,0,1,21.378,10.067ZM16.34,53.779,39.052,40.7l41.74,29.72H21.378a5.044,5.044,0,0,1-5.038-5.038Zm2.8,31.054a5.057,5.057,0,0,1-5.934-3.944L3.28,31.606a5.042,5.042,0,0,1,3.943-5.933l6.938-1.4v41.1A7.225,7.225,0,0,0,21.378,72.6H79.872ZM86.783,70.416H84.55L62.65,54.823,91.82,39.341V65.378A5.043,5.043,0,0,1,86.783,70.416ZM57.821,33.383a7.272,7.272,0,1,0-7.272-7.272A7.28,7.28,0,0,0,57.821,33.383Zm0-12.365a5.093,5.093,0,1,1-5.092,5.093A5.1,5.1,0,0,1,57.821,21.018Z"/><text x="0" y="110" fill="#000000" font-size="5px" font-weight="bold" font-family="'Helvetica Neue', Helvetica, Arial-Unicode, Arial, Sans-serif">Created by Sunardi</text><text x="0" y="115" fill="#000000" font-size="5px" font-weight="bold" font-family="'Helvetica Neue', Helvetica, Arial-Unicode, Arial, Sans-serif">from the Noun Project</text></svg>