<svg xmlns="http://www.w3.org/2000/svg" xmlns:xlink="http://www.w3.org/1999/xlink" version="1.1" x="0px" y="0px" viewBox="0 0 90 112.5" style="enable-background:new 0 0 90 90;" xml:space="preserve"><path d="M22.46191,64.50098c0,0.1377,0.1123,0.25,0.25,0.25h44.57617c0.1377,0,0.25-0.1123,0.25-0.25V19.9248  c0-0.1377-0.1123-0.25-0.25-0.25H22.71191c-0.1377,0-0.25,0.1123-0.25,0.25v7.9043h-4.12305c-0.1377,0-0.25,0.1123-0.25,0.25  v8.20898c0,0.1377,0.1123,0.25,0.25,0.25h4.12305v11.35059h-4.12305c-0.1377,0-0.25,0.1123-0.25,0.25v8.20898  c0,0.1377,0.1123,0.25,0.25,0.25h4.12305V64.50098z M22.96191,20.1748h44.07617v44.07617H22.96191V20.1748z M18.58887,36.03809  V28.3291h3.87305v7.70898H18.58887z M18.58887,56.09766v-7.70898h3.87305v7.70898H18.58887z"/><path d="M22.22266,78.3252h45.55469c0.1377,0,0.25-0.1123,0.25-0.25v-5.33691c4.16309-0.13361,7.51074-3.55316,7.51074-7.74805  V19.43652c0-4.28027-3.48145-7.76172-7.76074-7.76172H22.22266c-4.2793,0-7.76074,3.48145-7.76074,7.76172v45.55371  c0,4.19489,3.34766,7.61444,7.51074,7.74805v5.33691C21.97266,78.21289,22.08496,78.3252,22.22266,78.3252z M67.52734,77.8252  H22.47266v-5.07422h45.05469V77.8252z M14.96191,64.99023V19.43652c0-4.00391,3.25684-7.26172,7.26074-7.26172h45.55469  c4.00391,0,7.26074,3.25781,7.26074,7.26172v45.55371c0,4.00391-3.25684,7.26074-7.26074,7.26074H22.22266  C18.21875,72.25098,14.96191,68.99414,14.96191,64.99023z"/><path d="M50.27679,44.58636c0.22754-0.61108,0.35797-1.26904,0.35797-1.95844c0-2.26935-1.35071-4.22424-3.28809-5.11639v-9.60919  c0-0.1377-0.1123-0.25-0.25-0.25h-4.19336c-0.1377,0-0.25,0.1123-0.25,0.25v9.60919  c-1.93732,0.89215-3.28809,2.84711-3.28809,5.11639c0,0.68939,0.13055,1.34729,0.35803,1.95837l-6.79553,6.79553  c-0.04688,0.04688-0.07324,0.11035-0.07324,0.17676s0.02637,0.12988,0.07324,0.17676l2.96582,2.96484  c0.04883,0.04883,0.1123,0.07324,0.17676,0.07324s0.12793-0.02441,0.17676-0.07324l6.79462-6.79462  c0.61102,0.2276,1.26892,0.35809,1.95831,0.35809s1.34729-0.13049,1.95831-0.35809l6.79462,6.79462  c0.04883,0.04883,0.1123,0.07324,0.17676,0.07324c0.06348,0,0.12793-0.02441,0.17676-0.07324l2.96582-2.96484  c0.04688-0.04688,0.07324-0.11035,0.07324-0.17676s-0.02637-0.12988-0.07324-0.17676L50.27679,44.58636z M43.15332,28.15234h3.69336  v9.1579C46.26721,37.1084,45.64746,36.99316,45,36.99316c-0.64752,0-1.26721,0.11523-1.84668,0.31708V28.15234z M36.07031,54.16992  l-2.6123-2.61133l6.47711-6.47711c0.55298,1.13702,1.47461,2.05902,2.61145,2.61218L36.07031,54.16992z M45,47.76367  c-2.83105,0-5.13477-2.30371-5.13477-5.13574c0-2.83105,2.30371-5.13477,5.13477-5.13477s5.13477,2.30371,5.13477,5.13477  C50.13477,45.45996,47.83105,47.76367,45,47.76367z M53.92969,54.16992l-6.47626-6.47626  c1.13684-0.55316,2.05853-1.47516,2.61151-2.61212l6.47705,6.47705L53.92969,54.16992z"/><text x="0" y="105" fill="#000000" font-size="5px" font-weight="bold" font-family="'Helvetica Neue', Helvetica, Arial-Unicode, Arial, Sans-serif">Created by iconcheese</text><text x="0" y="110" fill="#000000" font-size="5px" font-weight="bold" font-family="'Helvetica Neue', Helvetica, Arial-Unicode, Arial, Sans-serif">from the Noun Project</text></svg>