<svg id="person" xmlns="http://www.w3.org/2000/svg" xmlns:xlink="http://www.w3.org/1999/xlink" version="1.1" x="0px" y="0px" viewBox="0 0 95 95.75" enable-background="new 0 0 95 95" xml:space="preserve"><g><g><g><path d="M47.5,83.659c-1.969,0-3.971-0.168-5.95-0.498c-5.853-0.974-11.438-3.42-16.153-7.073     c-8.932-6.921-14.056-17.34-14.056-28.587c0-19.938,16.221-36.16,36.159-36.16s36.159,16.222,36.159,36.16     c0,11.247-5.124,21.666-14.057,28.587c-4.714,3.653-10.3,6.1-16.153,7.073C51.471,83.491,49.469,83.659,47.5,83.659z      M47.5,13.341c-18.836,0-34.159,15.324-34.159,34.16c0,10.624,4.841,20.467,13.281,27.007c4.453,3.45,9.729,5.761,15.257,6.681     c3.742,0.625,7.5,0.625,11.242,0c5.528-0.92,10.804-3.23,15.256-6.681c8.441-6.54,13.282-16.383,13.282-27.007     C81.659,28.665,66.336,13.341,47.5,13.341z M67.069,73.032l-0.579-1.074c-1.884-3.489-4.657-6.372-8.046-8.371     c-3.246,2.191-7.017,3.346-10.944,3.346c-3.929,0-7.699-1.154-10.945-3.346c-3.388,1.999-6.161,4.882-8.045,8.371l-0.579,1.074     l-0.938-0.779c-7.404-6.146-11.651-15.168-11.651-24.752c0-17.733,14.427-32.16,32.159-32.16s32.159,14.427,32.159,32.16     c0,9.584-4.247,18.606-11.651,24.752L67.069,73.032z M58.318,61.224l0.556,0.307c3.608,1.991,6.616,4.882,8.76,8.404     c6.386-5.733,10.025-13.843,10.025-22.434c0-16.63-13.529-30.16-30.159-30.16s-30.159,13.53-30.159,30.16     c0,8.591,3.64,16.7,10.025,22.434c2.144-3.522,5.151-6.413,8.76-8.404l0.556-0.307l0.514,0.371     c3.02,2.184,6.582,3.338,10.305,3.338c3.722,0,7.285-1.154,10.305-3.338L58.318,61.224z"/></g></g><g><g><path d="M47.5,64.778c-9.639,0-17.479-7.841-17.479-17.479c0-9.639,7.841-17.48,17.479-17.48s17.479,7.842,17.479,17.48     C64.979,56.938,57.139,64.778,47.5,64.778z M47.5,31.819c-8.535,0-15.479,6.944-15.479,15.48c0,8.535,6.944,15.479,15.479,15.479     S62.979,55.835,62.979,47.3C62.979,38.764,56.035,31.819,47.5,31.819z"/></g></g></g></svg>